<?xml version="1.0" standalone="yes"?>

<svg version="1.1" viewBox="0.0 0.0 334.0 134.0" fill="none" stroke="none" stroke-linecap="square" stroke-miterlimit="10" xmlns="http://www.w3.org/2000/svg" xmlns:xlink="http://www.w3.org/1999/xlink"><clipPath id="p.0"><path d="m0 0l334.0 0l0 134.0l-334.0 0l0 -134.0z" clip-rule="nonzero"></path></clipPath><g clip-path="url(#p.0)"><path fill="#000000" fill-opacity="0.0" d="m0 0l334.25198 0l0 134.16798l-334.25198 0z" fill-rule="nonzero"></path><path fill="#000000" fill-opacity="0.0" d="m0 -9.973753E-4l369.98425 0l0 158.42519l-369.98425 0z" fill-rule="nonzero"></path><path fill="#e69138" d="m24.0625 96.038994l-9.671875 0l0 -61.531246l9.671875 0l0 61.531246zm27.507004 -8.421875q7.328125 0 10.984375 -6.96875l10.359375 0q-3.21875 8.4375 -8.359375 12.25q-5.125 3.796875 -13.0625 3.796875q-10.125 0 -16.53125 -6.75q-6.1875 -6.5625 -6.1875 -16.375q0 -9.890621 5.921875 -16.359371q6.328125 -6.765625 16.375 -6.765625q10.046875 0 16.375 6.765625q5.921875 6.46875 5.921875 16.359371l0 4.203125l-34.5625 0q0.375 3.203125 3.828125 6.515625q3.484375 3.328125 8.9375 3.328125zm-0.5 -28.093746q-5.0625 0 -8.453125 3.109375q-3.21875 2.9843712 -3.65625 5.906246l24.21875 0q-0.4375 -2.921875 -3.65625 -5.906246q-3.390625 -3.109375 -8.453125 -3.109375zm58.6801 33.718746q-2.359375 3.453125 -13.140625 3.453125q-9.734375 0 -15.890625 -6.78125q-5.90625 -6.640625 -5.90625 -16.34375q0 -9.703121 5.90625 -16.343746q6.15625 -6.78125 16.375 -6.78125q10.21875 0 12.65625 3.5625l0 -2.90625l9.65625 0l0 44.937496l-9.65625 0l0 -2.796875zm-12.3125 -5.625q5.9375 0 9.3125 -4.03125q3.328125 -3.921875 3.328125 -10.015625q0 -6.09375 -3.328125 -10.015621q-3.375 -4.03125 -9.3125 -4.03125q-5.875 0 -9.5 4.0625q-3.46875 3.9218712 -3.46875 9.984371q0 6.0625 3.46875 9.984375q3.625 4.0625 9.5 4.0625zm38.78978 -33.73437q2.34375 -3.4375 13.140625 -3.4375q9.71875 0 15.796875 6.78125q6.0 6.640625 6.0 16.343746q0 9.703125 -6.0 16.34375q-6.078125 6.78125 -16.296875 6.78125q-10.203125 0 -12.640625 -3.5625l0 19.34375l-9.671875 0l0 -61.374996l9.671875 0l0 2.78125zm12.296875 5.640625q-5.921875 0 -9.3125 4.03125q-3.328125 3.9218712 -3.328125 10.015621q0 6.09375 3.328125 10.015625q3.390625 4.03125 9.3125 4.03125q5.875 0 9.515625 -4.0625q3.46875 -3.921875 3.46875 -9.984375q0 -6.0625 -3.46875 -9.984371q-3.640625 -4.0625 -9.515625 -4.0625z" fill-rule="nonzero"></path><path fill="#434343" d="m180.934 41.288998q-2.140625 0 -3.515625 -1.453125q-1.375 -1.46875 -1.375 -3.609375q0 -2.125 1.375 -3.5q1.375 -1.3906269 3.515625 -1.3906269q2.125 0 3.453125 1.4218769q1.34375 1.421875 1.34375 3.46875q0 2.140625 -1.34375 3.609375q-1.328125 1.453125 -3.453125 1.453125zm-4.1875 54.749996l0 -45.062496l7.375 0l0 45.062496l-7.375 0z" fill-rule="nonzero"></path><path fill="#434343" d="m204.067 50.538998l0 7.09375q2.46875 -3.265625 6.015625 -5.546875q3.546875 -2.28125 8.09375 -2.28125q4.546875 0 7.828125 1.28125q3.28125 1.265625 5.734375 3.828125q5.640625 5.546875 5.640625 14.640621l0 26.484375l-6.828125 0l0 -26.296875q0 -6.281246 -3.546875 -10.015621q-3.546875 -3.734375 -9.1875 -3.734375q-5.734375 0 -9.734375 3.828125q-4.015625 3.90625 -4.015625 10.015621l0 26.203125l-6.8125 0l0 -45.499996l6.8125 0z" fill-rule="nonzero"></path><path fill="#e69138" d="m254.28471 96.83587q-2.671875 0 -4.40625 -2.0q-1.71875 -2.0 -1.71875 -4.65625q0 -2.671875 1.71875 -4.625q1.734375 -1.953125 4.40625 -1.953125q2.6718903 0 4.3593903 2.0q1.6875 2.0 1.6875 4.578125q0 2.65625 -1.6875 4.65625q-1.6875 2.0 -4.3593903 2.0z" fill-rule="nonzero"></path><path fill="#434343" d="m274.38647 41.288998q-2.140625 0 -3.515625 -1.453125q-1.375 -1.46875 -1.375 -3.609375q0 -2.125 1.375 -3.5q1.375 -1.3906269 3.515625 -1.3906269q2.125 0 3.453125 1.4218769q1.34375 1.421875 1.34375 3.46875q0 2.140625 -1.34375 3.609375q-1.328125 1.453125 -3.453125 1.453125zm-4.1875 54.749996l0 -45.062496l7.375 0l0 45.062496l-7.375 0zm34.05487 0.71875q-5.078125 0 -7.921875 -4.625q-2.484375 -3.921875 -2.484375 -9.25l0 -25.953121l-7.109375 0l0 -6.03125l7.109375 0l0 -9.15625l7.203125 0l0 9.15625l11.734375 0l0 6.125l-11.734375 -0.09375l0 27.015621q0 6.140625 5.234375 6.046875q2.84375 0 7.109375 -4.078125l3.46875 4.96875q-5.0625 5.875 -12.609375 5.875z" fill-rule="nonzero"></path></g></svg>

